<svg xmlns="http://www.w3.org/2000/svg" xmlns:xlink="http://www.w3.org/1999/xlink" width="61" height="64" viewBox="0 0 61 64"><defs><path id="1zjoa" d="M437 858v5h-6v2h6v8h3v-8h6v-2h-6v-5z"/><path id="1zjob" d="M448 845v5h-6v2h6v8h3v-8h6v-2h-6v-5z"/><path id="1zjoc" d="M458 858v5h-6v2h6v8h3v-8h6v-2h-6v-5z"/><path id="1zjod" d="M480 876.492v3.786c0 .392-.32.711-.714.711h-1.495v27.3a.712.712 0 0 1-.713.71h-9.594a.712.712 0 0 1-.714-.71v-1.377h-34.54v1.377c0 .392-.32.71-.714.71h-9.595a.712.712 0 0 1-.713-.71v-27.3h-1.494a.713.713 0 0 1-.714-.711v-3.786c0-.393.32-.711.714-.711h1.542a5.511 5.511 0 0 1 10.925 0h1.543c.394 0 .714.318.714.71v3.787c0 .392-.32.711-.714.711h-1.494v1.814h2.89v-3.629a.712.712 0 0 1 1.427 0v2.49a16.613 16.613 0 0 1 3.128-2.33v-2.293a.712.712 0 0 1 1.427 0v1.55a18.507 18.507 0 0 1 3.128-1.117v-1.856c0-.392.32-.71.714-.71.394 0 .714.318.714.71v1.543c.97-.176 2.012-.29 3.128-.325v-3.554a.713.713 0 0 1 1.427 0v3.553c1.117.035 2.159.15 3.128.326v-1.543c0-.392.32-.71.714-.71.395 0 .714.318.714.71v1.856c1.16.302 2.202.689 3.128 1.118v-1.551a.713.713 0 0 1 1.427 0v2.293a16.56 16.56 0 0 1 3.128 2.33v-2.49c0-.392.32-.71.714-.71.395 0 .714.318.714.71v3.628h2.89v-1.813h-1.495a.713.713 0 0 1-.714-.711v-3.786c0-.393.32-.711.714-.711h1.542a5.512 5.512 0 0 1 10.926 0h1.543c.394 0 .713.318.714.71zm-57.3-.711h8.039a4.086 4.086 0 0 0-8.04 0zm8.103 5.208h-8.168v26.589h8.168zm2.208-1.423v-2.363h-12.584v2.363zm2.109 24.175h-2.89v1.749h2.89zm0-16.527h-2.89v15.105h2.89zm0-2.99h-2.89v1.567h2.89zm4.555 19.517h-3.128v1.749h3.128zm0-19.727c-1.76 1.148-2.785 2.307-3.128 2.73v15.575h3.128zm0-2.989c-1.76 1.148-2.785 2.307-3.128 2.73v.898a16.62 16.62 0 0 1 3.128-2.33zm10.538-1.2c1.117.035 2.159.15 3.128.325v-1.533a19.163 19.163 0 0 0-3.128-.358zm0 1.423v8.95h3.128v-8.591a19.22 19.22 0 0 0-3.128-.359zm3.128 10.373h-7.683v1.951h7.683zm-7.683-11.47c.97-.177 2.012-.291 3.128-.326v-1.566a19.307 19.307 0 0 0-3.128.356zm0 1.453v8.594h3.128v-8.95a19.354 19.354 0 0 0-3.128.356zm-4.556-.023a18.492 18.492 0 0 1 3.128-1.117v-1.504a17.03 17.03 0 0 0-3.128 1.236zm3.128 22.16h-3.128v1.749h3.128zm0-21.792a17.042 17.042 0 0 0-3.128 1.236v19.134h3.128zm4.556 21.792h-3.128v1.749h3.128zm0-1.422v-7.324h-3.128v7.324zm4.555 1.422h-3.128v1.749h3.128zm0-1.422v-7.324h-3.128v7.324zm4.556 1.422h-3.128v1.749h3.128zm0-20.547c-.906-.469-1.947-.9-3.128-1.24v20.365h3.128zm0-2.99a16.994 16.994 0 0 0-3.128-1.24v1.5a18.45 18.45 0 0 1 3.128 1.117zm4.555 23.537h-3.128v1.749h3.128zm0-16.995c-.345-.422-1.372-1.577-3.128-2.721v18.294h3.128zm0-2.99c-.345-.422-1.372-1.577-3.128-2.721v1.288a16.568 16.568 0 0 1 3.128 2.33zm4.318 19.985h-2.89v1.749h2.89zm0-16.527h-2.89v15.105h2.89zm0-2.99h-2.89v1.567h2.89zm1.49-8.443h8.04a4.086 4.086 0 0 0-8.04 0zm8.104 5.208h-8.167v26.589h8.167zm2.208-3.786h-12.583v2.363h12.583zM475 884v2h-2v-2zm-49 0v2h-2v-2z"/></defs><g><g transform="translate(-419 -845)"><use fill="#f1995a" xlink:href="#1zjoa"/></g><g transform="translate(-419 -845)"><use fill="#f1995a" xlink:href="#1zjob"/></g><g transform="translate(-419 -845)"><use fill="#f1995a" xlink:href="#1zjoc"/></g><g transform="translate(-419 -845)"><use xlink:href="#1zjod"/></g></g></svg>