<svg xmlns="http://www.w3.org/2000/svg" xmlns:xlink="http://www.w3.org/1999/xlink" width="62" height="63" viewBox="0 0 62 63"><defs><path id="vkbla" d="M996 852v2h2v-2zm-11 9v-3h7.816c1.206-.001 2.183-.992 2.184-2.215V850h5v6.084c0 1.002.802 1.915 1.791 1.916H1010v3h-8.077c-1.017 0-1.922.837-1.923 1.869v17.13h2v-17h8.427c1.083-.034 1.578-.937 1.573-2.036v-3.273a1.681 1.681 0 0 0-1.667-1.69H1002v-6.447c-.002-1.078-.863-1.552-1.926-1.553h-5.003c-1.144 0-2.071.94-2.071 2.1v5.785a.118.118 0 0 1-.114.115h-7.95c-1.066-.002-1.932.872-1.936 1.953v4.01c-.006 1.099.853 1.002 1.936 1.037H993v17.604c-1.336-1.452-3.065-2.722-4.97-3.183-.56-.116-.754.25-.868.82-.114.567.247 1.422.808 1.538a7.48 7.48 0 0 1 5.023 4.22h-8.957c-.573 0-1.036.671-1.036 1.251 0 .58.463.75 1.036.75H997v-2h-1.16c-.572 0-.84-.47-.84-1.05v-20.134c0-1.002-.802-1.815-1.791-1.816z"/><path id="vkblb" d="M1028 863.816v16.734c1.143 0 2 1.24 2 2.4V884h.964c.572 0 2.036-.47 2.036-1.05V862.87c0-1.032.896-.868 1.913-.87H1043v-4h-8.21c-.988 0-1.79-.913-1.79-1.915V850h-5v6.183c-.002 1.003-.883 1.816-1.872 1.817H1018v4h8.128c.989 0 1.87.814 1.872 1.816zM1009.485 883H999v4h10.93c1.143 0 2.07 1.04 2.07 2.2V909h4v-19.9c0-1.16.492-2.1 1.636-2.1H1028v-4h-9.93c-1.143 0-2.07-1.14-2.07-2.3V873h-4v7.7c0 1.16-1.372 2.3-2.515 2.3zm.515-2v-7.9c0-1.16.927-2.1 2.07-2.1h3.86c1.143 0 2.07 1.39 2.07 2.55V881h8v-17h-8.064c-1.083-.035-1.942-.938-1.936-2.037v-4.01c.004-1.081.507-1.955 1.572-1.953H1026v-5.9c0-1.16.927-2.1 2.071-2.1h5.003c1.063 0 1.924.475 1.926 1.553V856h8.333c.92.001 1.666.757 1.667 1.69v4.273c.006 1.099-.5 2.002-1.583 2.037H1035v16.354a9.932 9.932 0 0 1 4.974-2.933c.554-.099.731.268.842.826.11.56-.238 1.406-.786 1.532a7.395 7.395 0 0 0-5.025 4.22h8.96c.571 0 1.035.671 1.035 1.251 0 .58-.969.75-1.54.75H1030v.9c0 1.16-1.008 2.1-2.151 2.1h-9.85v15.246a10.636 10.636 0 0 1 3.683-3.636c.51-.26 1.214-.052 1.471.466.258.518.052 1.15-.459 1.41a9.008 9.008 0 0 0-3.474 3.957 13.732 13.732 0 0 1 7.143-1.743c.572 0 1.036.47 1.036 1.05 0 .58-.464 1.15-1.036 1.15a10.833 10.833 0 0 0-7.04 2.1h12.217c.572 0 1.036.47 1.036 1.05 0 .58-.464.95-1.036.95h-35.202c-.571 0-1.035-.37-1.035-.95s.464-1.05 1.035-1.05h12.217a10.832 10.832 0 0 0-7.04-2.1c-.572 0-1.035-.57-1.035-1.15s.463-1.05 1.035-1.05a13.73 13.73 0 0 1 7.144 1.743 9.006 9.006 0 0 0-3.472-3.956 1.057 1.057 0 0 1-.459-1.411c.257-.518 1.082-.727 1.593-.466 1.503.887 2.767 2.186 3.679 3.686V889h-10.93c-1.143 0-2.07-.94-2.07-2.1v-4.25c0-1.16.927-1.461 2.07-1.461l.375-.19zm31-22v2h-2v-2zm-16 25v2h-2v-2z"/></defs><g><g transform="translate(-983 -848)"><use fill="#f1995a" xlink:href="#vkbla"/></g><g transform="translate(-983 -848)"><use xlink:href="#vkblb"/></g></g></svg>