<?xml version="1.0" encoding="utf-8"?>
<!-- Generator: Adobe Illustrator 22.0.1, SVG Export Plug-In . SVG Version: 6.00 Build 0)  -->
<svg version="1.1" id="zaglushka1024x768.fw-Page_x25_201"
	 xmlns="http://www.w3.org/2000/svg" xmlns:xlink="http://www.w3.org/1999/xlink" x="0px" y="0px" viewBox="0 0 1024 768"
	 style="enable-background:new 0 0 1024 768;" xml:space="preserve">
<style type="text/css">
	.st0{fill:none;}
	.st1{fill:#DADADA;}
</style>
<path class="st0" d="z"/>
<path class="st1" d="M513,164c0,0-92.4,127.4-92.4,184.3c0,47.8,29.2,88,68.8,99.6c-14.7-9.2-24.7-26.8-24.7-46.9
	c0-29.7,48.2-96.2,48.2-96.2s48.2,66.5,48.2,96.2c0,20.1-9.9,37.7-24.7,46.9c39.6-11.6,68.8-51.8,68.8-99.6
	C605.4,291.4,513,164,513,164z M540.3,417.5c0-16.8-27.3-54.4-27.3-54.4s-27.3,37.6-27.3,54.4c0,16.8,12.2,30.4,27.3,30.4
	C528.1,448,540.3,434.3,540.3,417.5z"/>
<path class="st1" d="M633.7,506.6c0.4,1.3,1.1,2.4,2,3.4c0.9,1,2.1,1.7,3.5,2.3c1.4,0.5,3,0.8,4.9,0.8c0.7,0,1.5,0,2.2-0.1
	c0.7-0.1,1.4-0.2,2.1-0.3c0.7-0.1,1.3-0.3,1.8-0.4c0.5-0.2,1-0.3,1.3-0.5l-0.8-4.7c-0.6,0.3-1.4,0.5-2.4,0.8c-1,0.2-2,0.3-3,0.3
	c-1.6,0-2.9-0.3-3.8-0.9c-1-0.6-1.5-1.4-1.6-2.4h13.2c0-0.3,0.1-0.7,0.1-1.1s0.1-0.8,0.1-1.2c0-3.6-0.9-6.3-2.6-8.2
	c-1.8-1.9-4.1-2.8-7.2-2.8c-1.3,0-2.6,0.2-3.8,0.7c-1.2,0.5-2.3,1.2-3.3,2.1c-0.9,0.9-1.7,2-2.3,3.4c-0.6,1.4-0.9,3-0.9,4.8
	C633,503.9,633.2,505.3,633.7,506.6z M639.7,501.4c0.1-0.6,0.2-1.2,0.3-1.8c0.2-0.6,0.4-1.1,0.6-1.6c0.3-0.5,0.6-0.8,1-1.1
	c0.4-0.3,0.9-0.4,1.5-0.4c0.6,0,1.1,0.2,1.5,0.4c0.4,0.3,0.7,0.7,1,1.1c0.3,0.5,0.4,1,0.6,1.6c0.1,0.6,0.2,1.2,0.2,1.8H639.7z
	 M611.3,513h6.7v-16.4c0.3-0.1,0.6-0.1,1-0.1c0.4,0,0.8-0.1,1.1-0.1c1.1,0,1.8,0.4,2.3,1.2c0.4,0.8,0.6,2.2,0.6,4.1V513h6.7v-11.9
	c0-1.4-0.2-2.7-0.4-3.9c-0.3-1.2-0.8-2.2-1.5-3c-0.7-0.9-1.6-1.5-2.8-2c-1.2-0.5-2.7-0.7-4.5-0.7c-1.8,0-3.5,0.1-5.1,0.4
	c-1.6,0.3-2.9,0.5-4,0.8V513z M606.3,491.5h-6.7V513h6.7V491.5z M605.7,482.4c-0.8-0.6-1.7-0.9-2.8-0.9c-1.1,0-2,0.3-2.8,0.9
	c-0.8,0.6-1.2,1.4-1.2,2.4s0.4,1.9,1.2,2.4c0.8,0.6,1.7,0.9,2.8,0.9c1,0,2-0.3,2.8-0.9c0.8-0.6,1.2-1.4,1.2-2.4
	S606.5,483,605.7,482.4z M596.3,508c-0.7-0.1-1.3-0.2-1.7-0.4c-0.4-0.2-0.8-0.4-1-0.7c-0.2-0.3-0.4-0.6-0.5-1.1
	c-0.1-0.4-0.1-0.9-0.1-1.4v-22.9l-6.7,1v23.2c0,1.1,0.1,2.1,0.4,3c0.2,0.9,0.7,1.7,1.4,2.3c0.7,0.6,1.6,1.1,2.8,1.4
	c1.2,0.4,2.7,0.5,4.6,0.6L596.3,508z M563,513h6.7v-16.4c0.3-0.1,0.6-0.1,1-0.1c0.4,0,0.8-0.1,1.1-0.1c1.1,0,1.8,0.4,2.3,1.2
	c0.4,0.8,0.6,2.2,0.6,4.1V513h6.7v-11.9c0-1.4-0.2-2.7-0.4-3.9c-0.3-1.2-0.8-2.2-1.5-3c-0.7-0.9-1.6-1.5-2.8-2
	c-1.2-0.5-2.7-0.7-4.5-0.7c-1.8,0-3.5,0.1-5.1,0.4c-1.6,0.3-2.9,0.5-4,0.8V513z M557.2,497.8c-0.5-1.3-1.3-2.5-2.2-3.4
	c-1-0.9-2.1-1.7-3.4-2.2c-1.3-0.5-2.8-0.8-4.4-0.8c-1.6,0-3,0.3-4.3,0.8c-1.3,0.5-2.5,1.2-3.4,2.2c-1,0.9-1.7,2.1-2.3,3.4
	c-0.5,1.3-0.8,2.8-0.8,4.4c0,1.6,0.3,3.1,0.8,4.4c0.5,1.3,1.3,2.5,2.2,3.4c0.9,1,2.1,1.7,3.4,2.2c1.3,0.5,2.8,0.8,4.4,0.8
	c1.6,0,3.1-0.3,4.5-0.8c1.3-0.5,2.5-1.2,3.4-2.2c0.9-0.9,1.7-2.1,2.2-3.4c0.5-1.3,0.8-2.8,0.8-4.4
	C558,500.6,557.7,499.1,557.2,497.8z M550.2,506.5c-0.7,1.1-1.7,1.6-3,1.6c-1.4,0-2.4-0.5-3.1-1.6c-0.7-1-1.1-2.5-1.1-4.3
	c0-1.8,0.4-3.2,1.1-4.2c0.7-1,1.7-1.6,3.1-1.6c1.3,0,2.3,0.5,3,1.6c0.7,1,1.1,2.4,1.1,4.2C551.3,504,551,505.4,550.2,506.5z
	 M532,507.2c-0.7-0.6-1.5-0.9-2.3-0.9c-0.9,0-1.6,0.3-2.3,0.9c-0.7,0.6-1,1.4-1,2.5s0.3,1.9,1,2.5c0.7,0.6,1.4,0.8,2.3,0.8
	c0.9,0,1.6-0.3,2.3-0.8c0.7-0.6,1-1.4,1-2.5S532.7,507.8,532,507.2z M504.7,513h6.7v-11.6c0-0.8,0-1.5-0.1-2.2
	c-0.1-0.7-0.2-1.3-0.4-2c0.4-0.2,0.8-0.4,1.3-0.6c0.5-0.2,0.9-0.2,1.2-0.2c1,0,1.8,0.4,2.2,1.2c0.4,0.8,0.7,2.2,0.7,4.1V513h6.7
	v-11.9c0-1.4-0.1-2.7-0.4-3.9c-0.3-1.2-0.7-2.2-1.4-3c-0.7-0.9-1.6-1.5-2.7-2c-1.1-0.5-2.6-0.7-4.3-0.7c-1,0-2,0.2-3.2,0.5
	c-1.1,0.4-2.2,0.8-3,1.4c-0.7-0.5-1.5-1-2.4-1.4c-1-0.4-2.3-0.6-3.8-0.6c-0.8,0-1.6,0.1-2.4,0.1c-0.8,0.1-1.6,0.2-2.4,0.3
	c-0.8,0.1-1.5,0.2-2.2,0.4c-0.7,0.2-1.3,0.3-1.8,0.4V513h6.7v-16.4c0.3-0.1,0.7-0.1,1-0.1c0.4,0,0.7-0.1,1.1-0.1
	c1,0,1.8,0.4,2.2,1.2c0.4,0.8,0.7,2.2,0.7,4.1V513z M488,491.5h-6.7V513h6.7V491.5z M487.4,482.4c-0.8-0.6-1.7-0.9-2.8-0.9
	c-1.1,0-2,0.3-2.8,0.9c-0.8,0.6-1.2,1.4-1.2,2.4s0.4,1.9,1.2,2.4c0.8,0.6,1.7,0.9,2.8,0.9c1,0,2-0.3,2.8-0.9
	c0.8-0.6,1.2-1.4,1.2-2.4S488.2,483,487.4,482.4z M458,513h6.7v-16.4c0.3-0.1,0.6-0.1,1-0.1c0.4,0,0.8-0.1,1.1-0.1
	c1.1,0,1.8,0.4,2.3,1.2c0.4,0.8,0.6,2.2,0.6,4.1V513h6.7v-11.9c0-1.4-0.2-2.7-0.4-3.9c-0.3-1.2-0.8-2.2-1.5-3
	c-0.7-0.9-1.6-1.5-2.8-2c-1.2-0.5-2.7-0.7-4.5-0.7c-1.8,0-3.5,0.1-5.1,0.4c-1.6,0.3-2.9,0.5-4,0.8V513z M434.7,513h6.7v-11.6
	c0-0.8,0-1.5-0.1-2.2c-0.1-0.7-0.2-1.3-0.4-2c0.4-0.2,0.8-0.4,1.3-0.6c0.5-0.2,0.9-0.2,1.2-0.2c1,0,1.8,0.4,2.2,1.2
	c0.4,0.8,0.7,2.2,0.7,4.1V513h6.7v-11.9c0-1.4-0.1-2.7-0.4-3.9c-0.3-1.2-0.7-2.2-1.4-3c-0.7-0.9-1.6-1.5-2.7-2
	c-1.1-0.5-2.6-0.7-4.3-0.7c-1,0-2,0.2-3.2,0.5c-1.1,0.4-2.2,0.8-3,1.4c-0.7-0.5-1.5-1-2.4-1.4c-1-0.4-2.3-0.6-3.8-0.6
	c-0.8,0-1.6,0.1-2.4,0.1c-0.8,0.1-1.6,0.2-2.4,0.3c-0.8,0.1-1.5,0.2-2.2,0.4c-0.7,0.2-1.3,0.3-1.8,0.4V513h6.7v-16.4
	c0.3-0.1,0.7-0.1,1-0.1c0.4,0,0.7-0.1,1.1-0.1c1,0,1.8,0.4,2.2,1.2c0.4,0.8,0.7,2.2,0.7,4.1V513z M417.2,497.8
	c-0.5-1.3-1.3-2.5-2.2-3.4c-1-0.9-2.1-1.7-3.4-2.2c-1.3-0.5-2.8-0.8-4.4-0.8c-1.6,0-3,0.3-4.3,0.8c-1.3,0.5-2.5,1.2-3.4,2.2
	c-1,0.9-1.7,2.1-2.3,3.4c-0.5,1.3-0.8,2.8-0.8,4.4c0,1.6,0.3,3.1,0.8,4.4c0.5,1.3,1.3,2.5,2.2,3.4c0.9,1,2.1,1.7,3.4,2.2
	c1.3,0.5,2.8,0.8,4.4,0.8c1.6,0,3.1-0.3,4.5-0.8c1.3-0.5,2.5-1.2,3.4-2.2c0.9-0.9,1.7-2.1,2.2-3.4c0.5-1.3,0.8-2.8,0.8-4.4
	C418,500.6,417.7,499.1,417.2,497.8z M410.2,506.5c-0.7,1.1-1.7,1.6-3,1.6c-1.4,0-2.4-0.5-3.1-1.6c-0.7-1-1.1-2.5-1.1-4.3
	c0-1.8,0.4-3.2,1.1-4.2c0.7-1,1.7-1.6,3.1-1.6c1.3,0,2.3,0.5,3,1.6c0.7,1,1.1,2.4,1.1,4.2C411.3,504,411,505.4,410.2,506.5z
	 M377.1,485c-1.5,0.1-2.8,0.3-4.1,0.6V513h6.7v-9.9h1.7c3.7,0,6.6-0.7,8.6-2.1c2-1.4,3-3.8,3-7c0-3.2-1.1-5.5-3.2-6.9
	c-2.1-1.4-5.1-2.1-9-2.1C379.8,484.8,378.5,484.9,377.1,485z M383.6,490c0.6,0.1,1.1,0.3,1.5,0.6c0.4,0.3,0.7,0.7,0.9,1.2
	c0.2,0.5,0.3,1.2,0.3,2c0,1.7-0.4,2.8-1.3,3.4c-0.9,0.6-2.1,0.9-3.8,0.9h-1.5v-8.2c0.2,0,0.5-0.1,0.9-0.1c0.3,0,0.7-0.1,1.1-0.1
	C382.3,489.8,383,489.9,383.6,490z"/>
<path class="st1" d="M70.1,74.8v526.5h884.8V74.8H70.1z M944.9,591.3H80.1V84.8h864.8V591.3z"/>
<path class="st1" d="M0,0v768h1024V0H0z M1014,758H10V10h1004V758z"/>
<path class="st1" d="M908.9,659v5h13v35h6v-35h13v-5H908.9z M904.5,699v-5h-20v-14h16v-5h-16v-11h19v-5h-25v40H904.5z M863.5,680.3
	c0.9-2.1,1.8-4.3,2.8-6.6c0.9-2.3,1.8-4.6,2.8-7c0.9-2.4,1.9-5,3-7.7h-6.4c-1.6,3.9-3.1,7.8-4.5,11.7c-1.4,3.8-2.9,7.4-4.5,10.6
	l-5.7-11.4l-5.4-10.8H839c0.9,1.8,1.9,3.9,3,6.2c1.1,2.3,2.3,4.7,3.6,7.2c1.3,2.5,2.7,5.2,4,8c1.4,2.8,2.8,5.5,4.1,8.2
	c-0.5,0.8-1,1.6-1.5,2.3c-0.5,0.7-1.1,1.2-1.8,1.7c-0.7,0.5-1.5,0.8-2.3,1.1c-0.9,0.3-1.9,0.4-3,0.4c-0.8,0-1.5-0.1-2.2-0.3
	c-0.7-0.2-1.3-0.4-1.8-0.6l-1,4.9c0.2,0.1,0.4,0.2,0.8,0.3c0.4,0.1,0.8,0.2,1.3,0.3c0.5,0.1,1,0.2,1.5,0.2s1,0.1,1.5,0.1
	c2.4,0,4.5-0.3,6.2-1c1.7-0.6,3.1-1.5,4.3-2.7c1.2-1.1,2.2-2.5,3.1-4c0.9-1.5,1.6-3.1,2.2-4.7C861.7,684.6,862.6,682.5,863.5,680.3z
	 M829.2,695.9c2.9-2,4.4-5.1,4.4-9.2c0-2.8-0.7-4.9-2.1-6.4c-1.4-1.5-3.3-2.6-5.6-3.3c1.7-0.7,3.1-1.6,4.2-3c1-1.3,1.6-3,1.6-5.1
	c0-1.8-0.4-3.4-1.3-4.7c-0.8-1.3-2-2.3-3.5-3.1c-1.5-0.8-3.2-1.3-5.2-1.7s-4.2-0.5-6.4-0.5c-0.8,0-1.7,0-2.6,0.1
	c-0.9,0-1.8,0.1-2.8,0.2c-0.9,0.1-1.9,0.2-2.8,0.3c-0.9,0.1-1.8,0.3-2.5,0.5v38c0.8,0.2,1.6,0.4,2.5,0.5c0.9,0.1,1.8,0.2,2.8,0.3
	c0.9,0.1,1.9,0.1,2.8,0.2s1.8,0,2.6,0C821.6,699,826.2,698,829.2,695.9z M817.4,680c1.5,0,2.9,0.1,4.2,0.3c1.3,0.2,2.3,0.6,3.2,1.1
	c0.9,0.5,1.6,1.3,2,2.1c0.5,0.9,0.7,2,0.7,3.2c0,1.4-0.3,2.6-1,3.6c-0.6,0.9-1.5,1.7-2.5,2.2c-1.1,0.5-2.3,0.9-3.7,1.1
	c-1.4,0.2-2.9,0.3-4.5,0.3c-0.8,0-1.6,0-2.2,0c-0.6,0-1.2,0-1.7-0.1c-0.5,0-1-0.1-1.4-0.1V680H817.4z M810.5,664.2
	c0.6-0.1,1.3-0.1,2.1-0.2c0.8,0,1.8-0.1,3.2-0.1c1.3,0,2.6,0.1,3.8,0.3s2.2,0.5,3.1,0.9c0.9,0.4,1.6,1,2.1,1.7s0.8,1.5,0.8,2.5
	c0,1.1-0.3,2-0.7,2.7c-0.5,0.7-1.2,1.3-2,1.7c-0.8,0.4-1.9,0.8-3,0.9c-1.2,0.2-2.4,0.3-3.7,0.3h-5.5V664.2z M766.1,659v5h13v35h6
	v-35h13v-5H766.1z M754.7,698.7c1.4-0.2,2.7-0.4,3.8-0.7c1.1-0.3,2-0.5,2.7-0.8c0.7-0.3,1.2-0.5,1.5-0.7l-1.5-4.7
	c-0.9,0.4-2.2,0.9-4,1.5c-1.8,0.5-4,0.8-6.7,0.8c-2.3,0-4.4-0.4-6.1-1.1c-1.8-0.7-3.2-1.8-4.4-3.1s-2-2.9-2.6-4.7
	c-0.6-1.8-0.9-3.9-0.9-6.1c0-2.3,0.3-4.4,1-6.3c0.7-1.9,1.6-3.4,2.9-4.7c1.3-1.3,2.8-2.3,4.6-3c1.8-0.7,3.8-1,6-1
	c1,0,2.1,0.1,3.1,0.3c1,0.2,2,0.4,2.9,0.7c0.9,0.3,1.7,0.5,2.3,0.8c0.7,0.3,1.2,0.5,1.6,0.8l1.6-4.7c-0.3-0.2-0.7-0.4-1.3-0.7
	s-1.5-0.6-2.5-0.9c-1-0.3-2.2-0.6-3.6-0.8c-1.4-0.2-2.9-0.3-4.7-0.3c-2.7,0-5.3,0.5-7.7,1.3c-2.4,0.9-4.5,2.2-6.3,3.9
	c-1.8,1.7-3.2,3.8-4.3,6.3c-1.1,2.5-1.6,5.3-1.6,8.5c0,3.2,0.5,6.1,1.4,8.5c0.9,2.5,2.3,4.6,4,6.3c1.7,1.7,3.8,3,6.1,3.9
	c2.4,0.9,5,1.3,7.9,1.3C751.7,699,753.3,698.9,754.7,698.7z M694.2,659v5h13v35h6v-35h13v-5H694.2z M683.3,680.3
	c0.9-2.1,1.8-4.3,2.8-6.6c0.9-2.3,1.8-4.6,2.8-7c0.9-2.4,1.9-5,3-7.7h-6.4c-1.6,3.9-3.1,7.8-4.5,11.7c-1.4,3.8-2.9,7.4-4.5,10.6
	l-5.7-11.4l-5.4-10.8h-6.6c0.9,1.8,1.9,3.9,3,6.2c1.1,2.3,2.3,4.7,3.6,7.2c1.3,2.5,2.7,5.2,4,8c1.4,2.8,2.8,5.5,4.1,8.2
	c-0.5,0.8-1,1.6-1.5,2.3c-0.5,0.7-1.1,1.2-1.8,1.7c-0.7,0.5-1.5,0.8-2.3,1.1c-0.9,0.3-1.9,0.4-3,0.4c-0.8,0-1.5-0.1-2.2-0.3
	c-0.7-0.2-1.3-0.4-1.8-0.6l-1,4.9c0.2,0.1,0.4,0.2,0.8,0.3c0.4,0.1,0.8,0.2,1.3,0.3c0.5,0.1,1,0.2,1.5,0.2s1,0.1,1.5,0.1
	c2.4,0,4.5-0.3,6.2-1c1.7-0.6,3.1-1.5,4.3-2.7c1.2-1.1,2.2-2.5,3.1-4c0.9-1.5,1.6-3.1,2.2-4.7C681.4,684.6,682.3,682.5,683.3,680.3z
	 M647.4,698.7c1.4-0.2,2.7-0.4,3.8-0.7c1.1-0.3,2-0.5,2.7-0.8c0.7-0.3,1.2-0.5,1.5-0.7l-1.5-4.7c-0.9,0.4-2.2,0.9-4,1.5
	c-1.8,0.5-4,0.8-6.7,0.8c-2.3,0-4.4-0.4-6.1-1.1c-1.8-0.7-3.2-1.8-4.4-3.1c-1.2-1.3-2-2.9-2.6-4.7c-0.6-1.8-0.9-3.9-0.9-6.1
	c0-2.3,0.3-4.4,1-6.3c0.7-1.9,1.6-3.4,2.9-4.7c1.3-1.3,2.8-2.3,4.6-3c1.8-0.7,3.8-1,6-1c1,0,2.1,0.1,3.1,0.3c1,0.2,2,0.4,2.9,0.7
	c0.9,0.3,1.7,0.5,2.3,0.8c0.7,0.3,1.2,0.5,1.6,0.8l1.6-4.7c-0.3-0.2-0.7-0.4-1.3-0.7c-0.6-0.3-1.5-0.6-2.5-0.9
	c-1-0.3-2.2-0.6-3.6-0.8c-1.4-0.2-2.9-0.3-4.7-0.3c-2.7,0-5.3,0.5-7.7,1.3c-2.4,0.9-4.5,2.2-6.3,3.9c-1.8,1.7-3.2,3.8-4.3,6.3
	c-1.1,2.5-1.6,5.3-1.6,8.5c0,3.2,0.5,6.1,1.4,8.5c0.9,2.5,2.3,4.6,4,6.3c1.7,1.7,3.8,3,6.1,3.9c2.4,0.9,5,1.3,7.9,1.3
	C644.4,699,645.9,698.9,647.4,698.7z M586.8,659v5h13v35h6v-35h13v-5H586.8z M544,687.7c1,2.5,2.5,4.6,4.2,6.3
	c1.8,1.7,3.9,2.9,6.3,3.8s4.9,1.3,7.6,1.3c2.6,0,5.1-0.4,7.4-1.3s4.4-2.1,6.2-3.8c1.8-1.7,3.2-3.8,4.2-6.3c1-2.5,1.6-5.4,1.6-8.7
	c0-3.3-0.5-6.2-1.6-8.7c-1-2.5-2.5-4.6-4.2-6.3c-1.8-1.7-3.8-2.9-6.2-3.8c-2.3-0.8-4.8-1.3-7.4-1.3c-2.7,0-5.2,0.4-7.6,1.3
	c-2.4,0.8-4.5,2.1-6.3,3.8c-1.8,1.7-3.2,3.8-4.2,6.3c-1,2.5-1.6,5.4-1.6,8.7C542.4,682.3,542.9,685.2,544,687.7z M549.3,672.8
	c0.6-1.9,1.5-3.4,2.7-4.8c1.2-1.3,2.6-2.3,4.3-3c1.7-0.7,3.6-1.1,5.7-1.1c2.1,0,4,0.4,5.6,1.1c1.7,0.7,3.1,1.7,4.2,3
	c1.2,1.3,2.1,2.9,2.7,4.8s1,3.9,1,6.2c0,2.3-0.3,4.3-1,6.2c-0.6,1.9-1.5,3.4-2.7,4.7c-1.2,1.3-2.6,2.3-4.2,3c-1.7,0.7-3.5,1-5.6,1
	c-2.1,0-4-0.3-5.7-1c-1.7-0.7-3.1-1.7-4.3-3c-1.2-1.3-2.1-2.9-2.7-4.7c-0.6-1.9-0.9-3.9-0.9-6.2
	C548.4,676.7,548.7,674.7,549.3,672.8z M521.5,699v-5h-20v-14h16v-5h-16v-11h19v-5h-25v40H521.5z M457.6,699
	c0.8-1.1,1.7-2.6,2.8-4.4c1.1-1.8,2.3-3.6,3.6-5.5c1.3-1.9,2.6-3.9,3.8-5.9c1.3-2,2.5-4,3.8-5.9s2.5-3.7,3.6-5.4s2.1-3,2.8-4.1V699
	h6v-40h-5.4c-1.5,1.9-3.1,4.2-4.9,6.8c-1.7,2.6-3.6,5.3-5.5,8.1c-1.9,2.8-3.8,5.4-5.6,8c-1.8,2.5-3.4,4.8-4.6,6.8V659h-6v40H457.6z
	 M434.6,676h-19v-17h-6v40h6v-18h19v18h6v-40h-6V676z M401.1,699v-5h-20v-14h16v-5h-16v-11h19v-5h-25v40H401.1z M329.6,682.2
	c-1.6,1.7-3,3.5-4.5,5.4c-1.4,1.9-2.8,3.8-4.1,5.7c-1.3,1.9-2.4,3.8-3.3,5.7h7.3c1-1.8,2-3.6,3.3-5.4c1.2-1.8,2.5-3.5,3.8-5.2
	c1.3-1.7,2.6-3.3,3.9-4.7c1.3-1.5,2.6-2.8,3.8-3.9V699h6v-19.3c1.2,1.1,2.4,2.4,3.8,3.9c1.3,1.5,2.6,3.1,3.9,4.8
	c1.3,1.7,2.6,3.4,3.8,5.3c1.2,1.8,2.3,3.6,3.3,5.4h7.3c-1-1.9-2.1-3.8-3.4-5.7c-1.3-1.9-2.6-3.8-4-5.7c-1.4-1.9-2.9-3.7-4.4-5.4
	c-1.5-1.7-3-3.3-4.6-4.7c1.1-1.3,2.4-2.8,3.8-4.4c1.4-1.6,2.7-3.2,4.1-4.9c1.4-1.7,2.7-3.3,4-4.9c1.3-1.6,2.5-3,3.5-4.3h-7.5
	c-0.8,1-1.7,2.1-2.8,3.4l-3.5,4.2c-1.2,1.5-2.5,3-3.7,4.4c-1.3,1.5-2.4,2.9-3.5,4.2V659h-6v16.2c-1.1-1.3-2.3-2.7-3.6-4.2l-3.7-4.4
	c-1.2-1.5-2.4-2.8-3.4-4.2c-1.1-1.3-2-2.5-2.8-3.5h-7.5c1,1.3,2.2,2.8,3.5,4.3l4,4.9c1.4,1.7,2.8,3.3,4.1,4.9s2.6,3.1,3.8,4.4
	C332.6,679,331.1,680.5,329.6,682.2z M315.3,699c-1.6-4.2-3.1-8.1-4.5-11.7l-4-10.3c-1.3-3.3-2.5-6.4-3.6-9.4l-3.3-8.6h-8.3
	l-2.9,8.1l-3.4,9.5l-3.7,10.4c-1.3,3.6-2.7,7.6-4.3,12h6.4l3.5-10H305c0.6,1.7,1.3,3.3,1.9,5l1.9,5H315.3z M289,684
	c1.2-3.3,2.3-6.5,3.5-9.7l3.3-9.3l3.7,9.6l3.6,9.4H289z M251.1,659.2c-1.9,0.1-3.7,0.4-5.3,0.8v39h6v-15h4.3c2.8,0,5.2-0.2,7.4-0.7
	c2.2-0.5,4-1.2,5.5-2.2c1.5-1,2.7-2.3,3.5-3.9s1.2-3.5,1.2-5.8c0-4.1-1.5-7.2-4.5-9.3c-3-2.1-7.3-3.1-12.9-3.1
	C254.8,659,253,659.1,251.1,659.2z M261.2,664.3c1.3,0.2,2.4,0.6,3.4,1.2c1,0.6,1.8,1.3,2.3,2.3c0.6,1,0.9,2.2,0.9,3.6
	c0,1.5-0.3,2.8-0.8,3.8c-0.6,1-1.3,1.8-2.4,2.3c-1,0.6-2.3,1-3.8,1.2c-1.5,0.2-3.1,0.3-5,0.3h-4.1v-14.8c1.2-0.1,3-0.2,5.3-0.2
	C258.5,664,259.9,664.1,261.2,664.3z M232.4,664v-5h-24v39c0.8,0.2,1.6,0.4,2.5,0.5c0.9,0.1,1.8,0.2,2.8,0.3
	c0.9,0.1,1.8,0.1,2.8,0.2c0.9,0,1.8,0,2.6,0c5.5,0,9.8-1.1,12.8-3.3c3-2.2,4.5-5.4,4.5-9.8c0-2.3-0.4-4.3-1.2-6
	c-0.8-1.6-1.9-3-3.4-4c-1.5-1-3.3-1.8-5.4-2.3c-2.1-0.5-4.5-0.7-7.2-0.7h-4.8v-9H232.4z M217.4,694c-0.7,0-1.2,0-1.7-0.1
	c-0.6,0-1-0.1-1.4-0.1V678h4.5c1.8,0,3.4,0.1,4.9,0.4s2.6,0.7,3.6,1.3c1,0.6,1.7,1.5,2.3,2.5c0.5,1,0.8,2.4,0.8,4
	c0,1.6-0.3,2.8-0.9,3.8c-0.6,1-1.4,1.8-2.3,2.4c-1,0.6-2.1,1-3.4,1.3c-1.3,0.2-2.6,0.3-4,0.3H217.4z M161.5,687.7
	c1,2.5,2.5,4.6,4.2,6.3c1.8,1.7,3.9,2.9,6.3,3.8s4.9,1.3,7.6,1.3c2.6,0,5.1-0.4,7.4-1.3c2.3-0.8,4.4-2.1,6.2-3.8
	c1.8-1.7,3.2-3.8,4.2-6.3c1-2.5,1.6-5.4,1.6-8.7c0-3.3-0.5-6.2-1.6-8.7c-1-2.5-2.5-4.6-4.2-6.3c-1.8-1.7-3.8-2.9-6.2-3.8
	c-2.3-0.8-4.8-1.3-7.4-1.3c-2.7,0-5.2,0.4-7.6,1.3c-2.4,0.8-4.5,2.1-6.3,3.8c-1.8,1.7-3.2,3.8-4.2,6.3c-1,2.5-1.6,5.4-1.6,8.7
	C159.9,682.3,160.4,685.2,161.5,687.7z M166.8,672.8c0.6-1.9,1.5-3.4,2.7-4.8c1.2-1.3,2.6-2.3,4.3-3c1.7-0.7,3.6-1.1,5.7-1.1
	c2.1,0,4,0.4,5.6,1.1c1.7,0.7,3.1,1.7,4.2,3c1.2,1.3,2.1,2.9,2.7,4.8s1,3.9,1,6.2c0,2.3-0.3,4.3-1,6.2c-0.6,1.9-1.5,3.4-2.7,4.7
	c-1.2,1.3-2.6,2.3-4.2,3c-1.7,0.7-3.5,1-5.6,1c-2.1,0-4-0.3-5.7-1c-1.7-0.7-3.1-1.7-4.3-3c-1.2-1.3-2.1-2.9-2.7-4.7
	c-0.6-1.9-0.9-3.9-0.9-6.2C165.9,676.7,166.2,674.7,166.8,672.8z M131.4,680h3.4c1.6,0,3.2,0.1,4.6,0.3c1.4,0.2,2.6,0.6,3.7,1.1
	c1,0.5,1.9,1.3,2.5,2.2c0.6,0.9,0.9,2.1,0.9,3.6c0,2.5-0.9,4.2-2.7,5.3c-1.8,1-4.3,1.5-7.5,1.5c-1.2,0-2.3-0.1-3.3-0.3
	c-1.1-0.2-2-0.4-2.9-0.7c-0.9-0.3-1.7-0.6-2.3-0.9c-0.7-0.3-1.3-0.6-1.7-0.8l-1.7,4.8c0.4,0.2,1,0.5,1.8,0.9c0.8,0.3,1.6,0.7,2.7,1
	c1,0.3,2.2,0.5,3.5,0.8c1.3,0.2,2.7,0.3,4.1,0.3c2.4,0,4.6-0.2,6.5-0.7c2-0.4,3.7-1.1,5-2.1c1.4-1,2.5-2.2,3.2-3.7
	c0.8-1.5,1.2-3.3,1.2-5.4c0-1.5-0.3-2.8-0.8-4c-0.5-1.1-1.1-2.1-2-3c-0.8-0.9-1.8-1.6-2.9-2.1c-1.1-0.5-2.2-1-3.4-1.3
	c2.3-0.7,4-1.8,5.2-3.3c1.2-1.5,1.8-3.1,1.8-4.8c0-1.7-0.3-3.1-1-4.3c-0.7-1.2-1.7-2.2-2.9-3c-1.2-0.8-2.7-1.4-4.4-1.8
	c-1.7-0.4-3.5-0.6-5.5-0.6c-1.2,0-2.4,0.1-3.5,0.2c-1.2,0.1-2.2,0.3-3.2,0.6c-1,0.2-1.9,0.5-2.6,0.8c-0.8,0.3-1.4,0.6-1.9,0.9
	l1.8,4.8c0.8-0.5,2-1,3.7-1.5c1.7-0.5,3.5-0.7,5.6-0.7c2.4,0,4.3,0.5,5.8,1.4c1.4,1,2.2,2.2,2.2,3.7c0,1.2-0.3,2.1-1,2.9
	c-0.6,0.8-1.5,1.4-2.4,1.8c-1,0.5-2.1,0.8-3.3,0.9c-1.2,0.2-2.4,0.3-3.5,0.3h-2.8V680z M89.5,699c0.8-1.1,1.7-2.6,2.8-4.4
	c1.1-1.8,2.3-3.6,3.6-5.5c1.3-1.9,2.6-3.9,3.8-5.9c1.3-2,2.5-4,3.8-5.9s2.5-3.7,3.6-5.4s2.1-3,2.8-4.1V699h6v-40h-5.4
	c-1.5,1.9-3.1,4.2-4.9,6.8c-1.7,2.6-3.6,5.3-5.5,8.1c-1.9,2.8-3.8,5.4-5.6,8c-1.8,2.5-3.4,4.8-4.6,6.8V659h-6v40H89.5z"/>
<path class="st0" d="z"/>
</svg>
